# xmcd
#
# Track frame offsets: 
#        150
#        24499
#        51349
#        72334
#        95535
#        116336
#        136275
#        161385
#        178541
#        201967
#        226850
#        246443
#        265216
#
# Disc length: 3757 seconds
#
# Revision: 0
# Processed by: cddbd v1.5.2PL0 Copyright (c) Steve Scherf et al.
# Submitted via: ExactAudioCopyFreeDBPlugin 1.0
#
DISCID=b10eab0d
DTITLE=Sam Mosley - The  whole World has still got the Blues
DYEAR=1900
DGENRE=
TTITLE0=The Whole World Has Still Got The Blues
TTITLE1=Juke Joint
TTITLE2=A Long Time
TTITLE3=I Give You My Heart
TTITLE4=Make you Mine
TTITLE5=Can't Get Enough
TTITLE6=Haven't I been Good to You
TTITLE7=Tip Toe
TTITLE8=Daylight's Caught Us Again
TTITLE9=Tonight's The Night
TTITLE10=I Like It
TTITLE11=I Found You
TTITLE12=If That Ain't Enough
EXTD=
EXTT0=
EXTT1=
EXTT2=
EXTT3=
EXTT4=
EXTT5=
EXTT6=
EXTT7=
EXTT8=
EXTT9=
EXTT10=
EXTT11=
EXTT12=
PLAYORDER=
